<?xml version="1.0" encoding="iso-8859-1"?>
<!-- Generator: Adobe Illustrator 19.2.0, SVG Export Plug-In . SVG Version: 6.00 Build 0)  -->
<svg version="1.1" xmlns="http://www.w3.org/2000/svg" xmlns:xlink="http://www.w3.org/1999/xlink" x="0px" y="0px"
	 viewBox="0 0 67.558 80.651" style="enable-background:new 0 0 67.558 80.651;" xml:space="preserve">
<g id="Superband">
	<path style="fill-rule:evenodd;clip-rule:evenodd;" d="M52.108,49.343c-0.464-0.422-0.317-1.096-0.291-1.648
		c0.215-4.518-0.018-9.338,0-13.861c0.015-3.687,0.04-7.483,0-11.244c-0.012-1.203,0.208-2.947-0.145-3.829
		c-0.376-0.939-1.871-1.522-2.762-2.035c-1.077-0.621-2.044-1.187-3.005-1.793c-3.455-2.159-7.45-4.401-11.293-6.737
		c-1.528-0.928-2.863-1.701-4.507-2.665c-0.553-0.325-2.017-0.982-2.036-1.551c-0.017-0.532,0.933-0.878,1.406-1.163
		c1.139-0.689,2.124-1.247,3.247-1.89c0.423-0.242,1.517-0.993,2.036-0.921c0.423,0.059,1.087,0.507,1.599,0.824
		c1.489,0.922,2.98,1.798,4.459,2.666c1.033,0.606,2.047,1.153,2.957,1.793c2.729,1.921,5.834,3.574,8.869,5.38
		c0.959,0.57,1.878,1.089,3.005,1.745c0.852,0.496,2.501,1.183,2.811,1.938c0.315,0.769,0.097,2.476,0.097,3.78
		c0,7.953,0,15.604,0,23.651c0,1.144,0.165,3.253-0.097,3.926c-0.209,0.536-0.843,0.791-1.406,1.114
		c-1.136,0.654-2.1,1.226-3.199,1.842C53.336,48.954,52.804,49.455,52.108,49.343z"/>
	<path style="fill-rule:evenodd;clip-rule:evenodd;" d="M0.347,27.243c-0.387-0.367-0.291-1.046-0.291-1.648
		c0-1.285,0.091-2.515,0.048-3.829c-0.021-0.654-0.095-1.261,0.097-1.745c0.35-0.882,1.995-1.412,2.957-1.987
		c1.06-0.634,2.08-1.328,3.053-1.89c4.178-2.412,8.396-4.673,12.553-7.124c1.033-0.609,2.112-1.174,3.15-1.793
		c1.107-0.661,2.186-1.344,3.295-1.842c0.794-0.065,1.846,0.73,2.569,1.163c1.628,0.974,3.014,1.799,4.604,2.763
		c3.81,2.308,7.8,4.557,11.486,6.882c1.41,0.979,2.946,1.823,4.604,2.763c0.559,0.316,1.163,0.672,1.309,1.114
		c0.294,0.892,0.048,2.825,0.048,3.926c0,0.937,0.21,3.257-0.339,3.489c-0.453,0.191-1.198-0.398-1.648-0.678
		c-0.554-0.346-1.081-0.63-1.503-0.872c-1.118-0.646-2.11-1.33-2.956-1.842c-2.064-1.249-4.124-2.379-6.058-3.538
		c-3.443-2.063-6.941-4.137-10.518-6.252c-0.502-0.297-1.155-0.761-1.599-0.775c-0.475-0.016-1.182,0.44-1.696,0.727
		c-1.489,0.83-3.209,1.889-4.604,2.665c-4.224,2.352-8.146,4.613-12.359,6.979c-1.525,0.857-3.003,1.79-4.556,2.714
		C1.521,26.894,0.981,27.376,0.347,27.243z"/>
	<path style="fill-rule:evenodd;clip-rule:evenodd;" d="M43.966,64.851c-0.032,0-0.065,0-0.097,0
		c-1.164-0.362-2.169-1.137-3.295-1.841c-0.481-0.301-1.005-0.545-1.648-0.921c-0.367-0.215-1.344-0.705-1.357-1.164
		c-0.02-0.699,2.226-1.576,2.763-1.89c4.85-2.844,9.752-5.708,14.733-8.481c0.904-0.503,1.882-1.124,2.956-1.696
		c0.874-0.466,2.304-1.071,2.617-1.987c0.312-0.912,0.097-2.709,0.097-3.926c0-6.762-0.104-13.262,0-19.483
		c0.028-1.714,0.048-3.721,0.048-5.719c0-0.608-0.11-1.576,0.291-1.745c0.489-0.266,1.342,0.395,1.891,0.727
		c1.052,0.638,1.967,1.218,3.102,1.89c0.499,0.295,1.211,0.667,1.357,1.115c0.272,0.83,0.049,2.991,0.049,4.022
		c0,4.073,0,8.241,0,12.213c0,4.12-0.027,7.684-0.049,11.68c-0.007,1.307,0.239,2.914-0.048,3.78
		c-0.223,0.672-2.058,1.539-2.714,1.89c-6.016,3.22-11.849,6.568-17.69,9.935C46.009,63.807,45.073,64.455,43.966,64.851z"/>
	<path style="fill-rule:evenodd;clip-rule:evenodd;" d="M25.016,16.096c0.598-0.178,1.34,0.421,1.89,0.726
		c1.088,0.605,2.007,1.23,3.199,1.939c0.525,0.312,1.393,0.733,1.406,1.164c0.016,0.573-0.92,0.872-1.357,1.115
		c-5.886,3.258-11.327,6.5-17.157,9.741c-1.573,0.875-3.011,1.69-4.652,2.666c-0.539,0.321-1.279,0.704-1.406,1.163
		c-0.256,0.933-0.097,2.39-0.097,3.684c0,7.573,0.049,14.737,0,22.342c-0.007,1.008,0.128,3.043-0.339,3.295
		c-0.465,0.252-1.311-0.392-1.745-0.678c-0.575-0.379-1.078-0.731-1.551-1.018c-1.148-0.696-2.272-1.122-3.102-2.084
		c-0.114-7.961-0.049-17.131-0.048-25.735c0-1.273-0.197-2.889,0.145-3.732C0.561,29.8,2.155,29.18,3.11,28.648
		c1.08-0.602,2.087-1.27,3.053-1.841c6.233-3.692,12.571-7.066,18.756-10.711C24.952,16.096,24.984,16.096,25.016,16.096z"/>
	<path style="fill-rule:evenodd;clip-rule:evenodd;" d="M14.499,32.38c1.038-0.421,0.818,2.068,0.775,3.005
		c-0.263,5.791-0.048,12.18-0.048,18.271c0,1.105,0,2.358,0,3.684c0,1.156-0.216,2.814,0.048,3.635
		c0.245,0.759,2.171,1.613,2.86,2.036c7.21,4.419,14.318,8.217,21.422,12.601c0.413,0.397,1.414,0.472,1.405,1.164
		c-0.007,0.496-0.959,0.888-1.454,1.163c-1.267,0.703-2.101,1.217-3.344,1.89c-0.56,0.303-1.238,0.833-1.793,0.824
		c-0.492-0.008-1.228-0.514-1.745-0.824c-6.927-4.145-13.85-8.35-20.888-12.407c-1.068-0.616-2.289-1.103-3.005-2.084
		c-0.091-9.876-0.08-19.725,0.048-29.37c0.602-0.915,1.757-1.311,2.714-1.89C12.48,33.479,13.49,32.872,14.499,32.38z"/>
	<path style="fill-rule:evenodd;clip-rule:evenodd;" d="M67.084,54.625c0.483,0.263,0.339,0.985,0.339,1.599c0,0.613,0,1.29,0,1.891
		c0,1.071,0.259,2.928-0.097,3.732c-0.267,0.602-2.166,1.465-2.811,1.842c-5.035,2.944-9.847,5.507-14.831,8.385
		c-1.357,0.783-2.888,1.732-4.41,2.568c-0.489,0.269-1.154,0.763-1.502,0.775c-0.462,0.017-1.154-0.53-1.745-0.872
		c-3.829-2.217-7.497-4.578-11.389-6.688c-2.059-1.116-4.237-2.572-6.495-3.877c-1.535-0.888-3.262-1.923-4.895-2.86
		c-0.594-0.341-1.266-0.644-1.454-1.115c-0.329-0.827-0.097-2.419-0.097-3.78c0-0.875-0.186-3.174,0.291-3.586
		c0.507-0.265,1.248,0.394,1.89,0.776c7.412,4.409,14.777,8.681,22.246,13.085c0.547,0.323,1.201,0.862,1.648,0.873
		c0.458,0.01,1.022-0.462,1.551-0.727c1.479-0.743,3.082-1.683,4.362-2.423c2.997-1.735,5.731-3.23,8.675-4.895
		c2.381-1.347,4.784-2.702,7.221-4.071C66.038,54.999,66.481,54.505,67.084,54.625z"/>
</g>
<g id="Layer_1">
</g>
</svg>
